<svg version="1.1" viewBox="0.0 0.0 1920.0 1080.0" fill="none" stroke="none" stroke-linecap="square" stroke-miterlimit="10" xmlns:xlink="http://www.w3.org/1999/xlink" xmlns="http://www.w3.org/2000/svg"><clipPath id="g2d2f1a6b277_0_19.0"><path d="m0 0l1920.0 0l0 1080.0l-1920.0 0l0 -1080.0z" clip-rule="nonzero"/></clipPath><g clip-path="url(#g2d2f1a6b277_0_19.0)"><path fill="#201e43" d="m0 0l1920.0 0l0 1080.0l-1920.0 0z" fill-rule="evenodd"/><g filter="url(#shadowFilter-g2d2f1a6b277_0_19.1)"><use xlink:href="#g2d2f1a6b277_0_19.1" transform="matrix(1.0 0.0 0.0 1.0 9.19238818897641 9.192388188976373)"/></g><defs><filter id="shadowFilter-g2d2f1a6b277_0_19.1" filterUnits="userSpaceOnUse"><feGaussianBlur in="SourceAlpha" stdDeviation="8.0" result="blur"/><feComponentTransfer in="blur" color-interpolation-filters="sRGB"><feFuncR type="linear" slope="0" intercept="0.2627451"/><feFuncG type="linear" slope="0" intercept="0.2627451"/><feFuncB type="linear" slope="0" intercept="0.2627451"/><feFuncA type="linear" slope="0.7" intercept="0"/></feComponentTransfer></filter></defs><g id="g2d2f1a6b277_0_19.1"><path fill="#134b70" d="m580.979 47.90242l0 0c0 -6.424217 5.2078857 -11.63208 11.63208 -11.63208l734.43665 0c3.084961 0 6.043701 1.2255211 8.225098 3.4069595c2.1813965 2.1814384 3.4069824 5.1401024 3.4069824 8.225121l0 116.326385c0 6.424225 -5.2078857 11.63208 -11.63208 11.63208l-734.43665 0c-6.4241943 0 -11.63208 -5.207855 -11.63208 -11.63208z" fill-rule="evenodd"/><path stroke="#595959" stroke-width="1.0" stroke-linejoin="round" stroke-linecap="butt" d="m580.979 47.90242l0 0c0 -6.424217 5.2078857 -11.63208 11.63208 -11.63208l734.43665 0c3.084961 0 6.043701 1.2255211 8.225098 3.4069595c2.1813965 2.1814384 3.4069824 5.1401024 3.4069824 8.225121l0 116.326385c0 6.424225 -5.2078857 11.63208 -11.63208 11.63208l-734.43665 0c-6.4241943 0 -11.63208 -5.207855 -11.63208 -11.63208z" fill-rule="evenodd"/></g><g filter="url(#shadowFilter-g2d2f1a6b277_0_19.2)"><use xlink:href="#g2d2f1a6b277_0_19.2" transform="matrix(1.0 0.0 0.0 1.0 -9.19238818897641 -9.192388188976373)"/></g><defs><filter id="shadowFilter-g2d2f1a6b277_0_19.2" filterUnits="userSpaceOnUse"><feGaussianBlur in="SourceAlpha" stdDeviation="8.0" result="blur"/><feComponentTransfer in="blur" color-interpolation-filters="sRGB"><feFuncR type="linear" slope="0" intercept="0.2627451"/><feFuncG type="linear" slope="0" intercept="0.2627451"/><feFuncB type="linear" slope="0" intercept="0.2627451"/><feFuncA type="linear" slope="0.7" intercept="0"/></feComponentTransfer></filter></defs><g id="g2d2f1a6b277_0_19.2"><path fill="#134b70" d="m580.979 47.90242l0 0c0 -6.424217 5.2078857 -11.63208 11.63208 -11.63208l734.43665 0c3.084961 0 6.043701 1.2255211 8.225098 3.4069595c2.1813965 2.1814384 3.4069824 5.1401024 3.4069824 8.225121l0 116.326385c0 6.424225 -5.2078857 11.63208 -11.63208 11.63208l-734.43665 0c-6.4241943 0 -11.63208 -5.207855 -11.63208 -11.63208z" fill-rule="evenodd"/><path stroke="#595959" stroke-width="1.0" stroke-linejoin="round" stroke-linecap="butt" d="m580.979 47.90242l0 0c0 -6.424217 5.2078857 -11.63208 11.63208 -11.63208l734.43665 0c3.084961 0 6.043701 1.2255211 8.225098 3.4069595c2.1813965 2.1814384 3.4069824 5.1401024 3.4069824 8.225121l0 116.326385c0 6.424225 -5.2078857 11.63208 -11.63208 11.63208l-734.43665 0c-6.4241943 0 -11.63208 -5.207855 -11.63208 -11.63208z" fill-rule="evenodd"/></g><g filter="url(#shadowFilter-g2d2f1a6b277_0_19.3)"><use xlink:href="#g2d2f1a6b277_0_19.3" transform="matrix(1.0 0.0 0.0 1.0 9.192388188976373 9.192388188976334)"/></g><defs><filter id="shadowFilter-g2d2f1a6b277_0_19.3" filterUnits="userSpaceOnUse"><feGaussianBlur in="SourceAlpha" stdDeviation="8.0" result="blur"/><feComponentTransfer in="blur" color-interpolation-filters="sRGB"><feFuncR type="linear" slope="0" intercept="0.2627451"/><feFuncG type="linear" slope="0" intercept="0.2627451"/><feFuncB type="linear" slope="0" intercept="0.2627451"/><feFuncA type="linear" slope="0.7" intercept="0"/></feComponentTransfer></filter></defs><g id="g2d2f1a6b277_0_19.3"><path fill="#134b70" d="m94.32284 241.17438l0 0c0 -18.86969 15.296898 -34.16658 34.166588 -34.16658l1664.8008 0c9.061523 0 17.751831 3.5996704 24.159424 10.007156c6.4074707 6.4074707 10.00708 15.097885 10.00708 24.159424l0 741.4936c0 18.86969 -15.296875 34.166565 -34.166504 34.166565l-1664.8008 0c-18.86969 0 -34.166588 -15.296875 -34.166588 -34.166565z" fill-rule="evenodd"/><path stroke="#595959" stroke-width="1.0" stroke-linejoin="round" stroke-linecap="butt" d="m94.32284 241.17438l0 0c0 -18.86969 15.296898 -34.16658 34.166588 -34.16658l1664.8008 0c9.061523 0 17.751831 3.5996704 24.159424 10.007156c6.4074707 6.4074707 10.00708 15.097885 10.00708 24.159424l0 741.4936c0 18.86969 -15.296875 34.166565 -34.166504 34.166565l-1664.8008 0c-18.86969 0 -34.166588 -15.296875 -34.166588 -34.166565z" fill-rule="evenodd"/></g><g filter="url(#shadowFilter-g2d2f1a6b277_0_19.4)"><use xlink:href="#g2d2f1a6b277_0_19.4" transform="matrix(1.0 0.0 0.0 1.0 -9.192388188976373 -9.192388188976334)"/></g><defs><filter id="shadowFilter-g2d2f1a6b277_0_19.4" filterUnits="userSpaceOnUse"><feGaussianBlur in="SourceAlpha" stdDeviation="8.0" result="blur"/><feComponentTransfer in="blur" color-interpolation-filters="sRGB"><feFuncR type="linear" slope="0" intercept="0.2627451"/><feFuncG type="linear" slope="0" intercept="0.2627451"/><feFuncB type="linear" slope="0" intercept="0.2627451"/><feFuncA type="linear" slope="0.7" intercept="0"/></feComponentTransfer></filter></defs><g id="g2d2f1a6b277_0_19.4"><path fill="#134b70" d="m98.93301 239.47946l0 0c0 -18.86969 15.2969055 -34.16658 34.166588 -34.16658l1664.8007 0c9.061523 0 17.751953 3.5996704 24.159424 10.007156c6.4074707 6.407486 10.007202 15.097885 10.007202 24.159424l0 741.49365c0 18.869629 -15.296997 34.166565 -34.166626 34.166565l-1664.8007 0c-18.869682 0 -34.166588 -15.296936 -34.166588 -34.166565z" fill-rule="evenodd"/><path stroke="#595959" stroke-width="1.0" stroke-linejoin="round" stroke-linecap="butt" d="m98.93301 239.47946l0 0c0 -18.86969 15.2969055 -34.16658 34.166588 -34.16658l1664.8007 0c9.061523 0 17.751953 3.5996704 24.159424 10.007156c6.4074707 6.407486 10.007202 15.097885 10.007202 24.159424l0 741.49365c0 18.869629 -15.296997 34.166565 -34.166626 34.166565l-1664.8007 0c-18.869682 0 -34.166588 -15.296936 -34.166588 -34.166565z" fill-rule="evenodd"/></g></g></svg>