<svg version="1.1" viewBox="0.0 0.0 1920.0 1080.0" fill="none" stroke="none" stroke-linecap="square" stroke-miterlimit="10" xmlns:xlink="http://www.w3.org/1999/xlink" xmlns="http://www.w3.org/2000/svg"><clipPath id="g2d2f1a6b277_0_27.0"><path d="m0 0l1920.0 0l0 1080.0l-1920.0 0l0 -1080.0z" clip-rule="nonzero"/></clipPath><g clip-path="url(#g2d2f1a6b277_0_27.0)"><path fill="#201e43" d="m0 0l1920.0 0l0 1080.0l-1920.0 0z" fill-rule="evenodd"/><g filter="url(#shadowFilter-g2d2f1a6b277_0_27.1)"><use xlink:href="#g2d2f1a6b277_0_27.1" transform="matrix(1.0 0.0 0.0 1.0 -9.19238818897641 -9.192388188976373)"/></g><defs><filter id="shadowFilter-g2d2f1a6b277_0_27.1" filterUnits="userSpaceOnUse"><feGaussianBlur in="SourceAlpha" stdDeviation="8.0" result="blur"/><feComponentTransfer in="blur" color-interpolation-filters="sRGB"><feFuncR type="linear" slope="0" intercept="0.2627451"/><feFuncG type="linear" slope="0" intercept="0.2627451"/><feFuncB type="linear" slope="0" intercept="0.2627451"/><feFuncA type="linear" slope="0.7" intercept="0"/></feComponentTransfer></filter></defs><g id="g2d2f1a6b277_0_27.1"><path fill="#134b70" d="m576.0971 45.72656l0 0c0 -6.569172 5.3253784 -11.894539 11.894531 -11.894539l744.49445 0c3.154541 0 6.1800537 1.2531738 8.410645 3.4838295c2.230713 2.2306595 3.4838867 5.2560806 3.4838867 8.410709l0 118.95108c0 6.569168 -5.3254395 11.894531 -11.894531 11.894531l-744.49445 0l0 0c-6.569153 0 -11.894531 -5.325363 -11.894531 -11.894531z" fill-rule="evenodd"/><path stroke="#595959" stroke-width="1.0" stroke-linejoin="round" stroke-linecap="butt" d="m576.0971 45.72656l0 0c0 -6.569172 5.3253784 -11.894539 11.894531 -11.894539l744.49445 0c3.154541 0 6.1800537 1.2531738 8.410645 3.4838295c2.230713 2.2306595 3.4838867 5.2560806 3.4838867 8.410709l0 118.95108c0 6.569168 -5.3254395 11.894531 -11.894531 11.894531l-744.49445 0l0 0c-6.569153 0 -11.894531 -5.325363 -11.894531 -11.894531z" fill-rule="evenodd"/></g><g filter="url(#shadowFilter-g2d2f1a6b277_0_27.2)"><use xlink:href="#g2d2f1a6b277_0_27.2" transform="matrix(1.0 0.0 0.0 1.0 9.19238818897641 9.192388188976373)"/></g><defs><filter id="shadowFilter-g2d2f1a6b277_0_27.2" filterUnits="userSpaceOnUse"><feGaussianBlur in="SourceAlpha" stdDeviation="8.0" result="blur"/><feComponentTransfer in="blur" color-interpolation-filters="sRGB"><feFuncR type="linear" slope="0" intercept="0.2627451"/><feFuncG type="linear" slope="0" intercept="0.2627451"/><feFuncB type="linear" slope="0" intercept="0.2627451"/><feFuncA type="linear" slope="0.7" intercept="0"/></feComponentTransfer></filter></defs><g id="g2d2f1a6b277_0_27.2"><path fill="#134b70" d="m576.0971 45.72656l0 0c0 -6.569172 5.3253784 -11.894539 11.894531 -11.894539l744.49445 0c3.154541 0 6.1800537 1.2531738 8.410645 3.4838295c2.230713 2.2306595 3.4838867 5.2560806 3.4838867 8.410709l0 118.95108c0 6.569168 -5.3254395 11.894531 -11.894531 11.894531l-744.49445 0l0 0c-6.569153 0 -11.894531 -5.325363 -11.894531 -11.894531z" fill-rule="evenodd"/><path stroke="#595959" stroke-width="1.0" stroke-linejoin="round" stroke-linecap="butt" d="m576.0971 45.72656l0 0c0 -6.569172 5.3253784 -11.894539 11.894531 -11.894539l744.49445 0c3.154541 0 6.1800537 1.2531738 8.410645 3.4838295c2.230713 2.2306595 3.4838867 5.2560806 3.4838867 8.410709l0 118.95108c0 6.569168 -5.3254395 11.894531 -11.894531 11.894531l-744.49445 0l0 0c-6.569153 0 -11.894531 -5.325363 -11.894531 -11.894531z" fill-rule="evenodd"/></g><g filter="url(#shadowFilter-g2d2f1a6b277_0_27.3)"><use xlink:href="#g2d2f1a6b277_0_27.3" transform="matrix(1.0 0.0 0.0 1.0 9.192388188976373 9.19238818897641)"/></g><defs><filter id="shadowFilter-g2d2f1a6b277_0_27.3" filterUnits="userSpaceOnUse"><feGaussianBlur in="SourceAlpha" stdDeviation="8.0" result="blur"/><feComponentTransfer in="blur" color-interpolation-filters="sRGB"><feFuncR type="linear" slope="0" intercept="0.2627451"/><feFuncG type="linear" slope="0" intercept="0.2627451"/><feFuncB type="linear" slope="0" intercept="0.2627451"/><feFuncA type="linear" slope="0.7" intercept="0"/></feComponentTransfer></filter></defs><g id="g2d2f1a6b277_0_27.3"><path fill="#134b70" d="m94.538055 233.76791l0 0c0 -15.374939 12.463852 -27.838776 27.838783 -27.838776l1679.535 0c7.383301 0 14.464233 2.9329987 19.685059 8.153793c5.220703 5.2207794 8.153687 12.3016815 8.153687 19.684982l0 278.40115c0 15.374939 -12.463745 27.838806 -27.838745 27.838806l-1679.535 0l0 0c-15.374931 0 -27.838783 -12.463867 -27.838783 -27.838806z" fill-rule="evenodd"/><path stroke="#595959" stroke-width="1.0" stroke-linejoin="round" stroke-linecap="butt" d="m94.538055 233.76791l0 0c0 -15.374939 12.463852 -27.838776 27.838783 -27.838776l1679.535 0c7.383301 0 14.464233 2.9329987 19.685059 8.153793c5.220703 5.2207794 8.153687 12.3016815 8.153687 19.684982l0 278.40115c0 15.374939 -12.463745 27.838806 -27.838745 27.838806l-1679.535 0l0 0c-15.374931 0 -27.838783 -12.463867 -27.838783 -27.838806z" fill-rule="evenodd"/></g><g filter="url(#shadowFilter-g2d2f1a6b277_0_27.4)"><use xlink:href="#g2d2f1a6b277_0_27.4" transform="matrix(1.0 0.0 0.0 1.0 9.192388188976373 9.192388188976334)"/></g><defs><filter id="shadowFilter-g2d2f1a6b277_0_27.4" filterUnits="userSpaceOnUse"><feGaussianBlur in="SourceAlpha" stdDeviation="8.0" result="blur"/><feComponentTransfer in="blur" color-interpolation-filters="sRGB"><feFuncR type="linear" slope="0" intercept="0.2627451"/><feFuncG type="linear" slope="0" intercept="0.2627451"/><feFuncB type="linear" slope="0" intercept="0.2627451"/><feFuncA type="linear" slope="0.7" intercept="0"/></feComponentTransfer></filter></defs><g id="g2d2f1a6b277_0_27.4"><path fill="#134b70" d="m94.538055 596.2069l0 0c0 -15.374878 12.463852 -27.838745 27.838783 -27.838745l1679.535 0c7.383301 0 14.464233 2.9329834 19.685059 8.153809c5.220703 5.220764 8.153687 12.301636 8.153687 19.684937l0 278.40118c0 15.374939 -12.463745 27.838806 -27.838745 27.838806l-1679.535 0l0 0c-15.374931 0 -27.838783 -12.463867 -27.838783 -27.838806z" fill-rule="evenodd"/><path stroke="#595959" stroke-width="1.0" stroke-linejoin="round" stroke-linecap="butt" d="m94.538055 596.2069l0 0c0 -15.374878 12.463852 -27.838745 27.838783 -27.838745l1679.535 0c7.383301 0 14.464233 2.9329834 19.685059 8.153809c5.220703 5.220764 8.153687 12.301636 8.153687 19.684937l0 278.40118c0 15.374939 -12.463745 27.838806 -27.838745 27.838806l-1679.535 0l0 0c-15.374931 0 -27.838783 -12.463867 -27.838783 -27.838806z" fill-rule="evenodd"/></g><g filter="url(#shadowFilter-g2d2f1a6b277_0_27.5)"><use xlink:href="#g2d2f1a6b277_0_27.5" transform="matrix(1.0 0.0 0.0 1.0 -9.192388188976373 -9.19238818897641)"/></g><defs><filter id="shadowFilter-g2d2f1a6b277_0_27.5" filterUnits="userSpaceOnUse"><feGaussianBlur in="SourceAlpha" stdDeviation="8.0" result="blur"/><feComponentTransfer in="blur" color-interpolation-filters="sRGB"><feFuncR type="linear" slope="0" intercept="0.2627451"/><feFuncG type="linear" slope="0" intercept="0.2627451"/><feFuncB type="linear" slope="0" intercept="0.2627451"/><feFuncA type="linear" slope="0.7" intercept="0"/></feComponentTransfer></filter></defs><g id="g2d2f1a6b277_0_27.5"><path fill="#134b70" d="m94.538055 233.76791l0 0c0 -15.374939 12.463852 -27.838776 27.838783 -27.838776l1679.535 0c7.383301 0 14.464233 2.9329987 19.685059 8.153793c5.220703 5.2207794 8.153687 12.3016815 8.153687 19.684982l0 278.40115c0 15.374939 -12.463745 27.838806 -27.838745 27.838806l-1679.535 0l0 0c-15.374931 0 -27.838783 -12.463867 -27.838783 -27.838806z" fill-rule="evenodd"/><path stroke="#595959" stroke-width="1.0" stroke-linejoin="round" stroke-linecap="butt" d="m94.538055 233.76791l0 0c0 -15.374939 12.463852 -27.838776 27.838783 -27.838776l1679.535 0c7.383301 0 14.464233 2.9329987 19.685059 8.153793c5.220703 5.2207794 8.153687 12.3016815 8.153687 19.684982l0 278.40115c0 15.374939 -12.463745 27.838806 -27.838745 27.838806l-1679.535 0l0 0c-15.374931 0 -27.838783 -12.463867 -27.838783 -27.838806z" fill-rule="evenodd"/></g><g filter="url(#shadowFilter-g2d2f1a6b277_0_27.6)"><use xlink:href="#g2d2f1a6b277_0_27.6" transform="matrix(1.0 0.0 0.0 1.0 -9.192388188976373 -9.192388188976334)"/></g><defs><filter id="shadowFilter-g2d2f1a6b277_0_27.6" filterUnits="userSpaceOnUse"><feGaussianBlur in="SourceAlpha" stdDeviation="8.0" result="blur"/><feComponentTransfer in="blur" color-interpolation-filters="sRGB"><feFuncR type="linear" slope="0" intercept="0.2627451"/><feFuncG type="linear" slope="0" intercept="0.2627451"/><feFuncB type="linear" slope="0" intercept="0.2627451"/><feFuncA type="linear" slope="0.7" intercept="0"/></feComponentTransfer></filter></defs><g id="g2d2f1a6b277_0_27.6"><path fill="#134b70" d="m94.538055 596.2069l0 0c0 -15.374878 12.463852 -27.838745 27.838783 -27.838745l1679.535 0c7.383301 0 14.464233 2.9329834 19.685059 8.153809c5.220703 5.220764 8.153687 12.301636 8.153687 19.684937l0 278.40118c0 15.374939 -12.463745 27.838806 -27.838745 27.838806l-1679.535 0l0 0c-15.374931 0 -27.838783 -12.463867 -27.838783 -27.838806z" fill-rule="evenodd"/><path stroke="#595959" stroke-width="1.0" stroke-linejoin="round" stroke-linecap="butt" d="m94.538055 596.2069l0 0c0 -15.374878 12.463852 -27.838745 27.838783 -27.838745l1679.535 0c7.383301 0 14.464233 2.9329834 19.685059 8.153809c5.220703 5.220764 8.153687 12.301636 8.153687 19.684937l0 278.40118c0 15.374939 -12.463745 27.838806 -27.838745 27.838806l-1679.535 0l0 0c-15.374931 0 -27.838783 -12.463867 -27.838783 -27.838806z" fill-rule="evenodd"/></g><g filter="url(#shadowFilter-g2d2f1a6b277_0_27.7)"><use xlink:href="#g2d2f1a6b277_0_27.7" transform="matrix(1.0 0.0 0.0 1.0 -9.19238818897641 -9.192388188976334)"/></g><defs><filter id="shadowFilter-g2d2f1a6b277_0_27.7" filterUnits="userSpaceOnUse"><feGaussianBlur in="SourceAlpha" stdDeviation="8.0" result="blur"/><feComponentTransfer in="blur" color-interpolation-filters="sRGB"><feFuncR type="linear" slope="0" intercept="0.2627451"/><feFuncG type="linear" slope="0" intercept="0.2627451"/><feFuncB type="linear" slope="0" intercept="0.2627451"/><feFuncA type="linear" slope="0.7" intercept="0"/></feComponentTransfer></filter></defs><g id="g2d2f1a6b277_0_27.7"><path fill="#134b70" d="m654.147 944.1553l0 0c0 -3.7092896 3.006958 -6.7162476 6.7162476 -6.7162476l598.75653 0c1.78125 0 3.489502 0.70758057 4.7490234 1.9671631c1.2595215 1.2595215 1.9671631 2.9678345 1.9671631 4.7490845l0 67.16589c0 3.7092896 -3.006958 6.7163086 -6.7161865 6.7163086l-598.75653 0c-3.7092896 0 -6.7162476 -3.007019 -6.7162476 -6.7163086z" fill-rule="evenodd"/><path stroke="#595959" stroke-width="1.0" stroke-linejoin="round" stroke-linecap="butt" d="m654.147 944.1553l0 0c0 -3.7092896 3.006958 -6.7162476 6.7162476 -6.7162476l598.75653 0c1.78125 0 3.489502 0.70758057 4.7490234 1.9671631c1.2595215 1.2595215 1.9671631 2.9678345 1.9671631 4.7490845l0 67.16589c0 3.7092896 -3.006958 6.7163086 -6.7161865 6.7163086l-598.75653 0c-3.7092896 0 -6.7162476 -3.007019 -6.7162476 -6.7163086z" fill-rule="evenodd"/></g><g filter="url(#shadowFilter-g2d2f1a6b277_0_27.8)"><use xlink:href="#g2d2f1a6b277_0_27.8" transform="matrix(1.0 0.0 0.0 1.0 9.19238818897641 9.192388188976334)"/></g><defs><filter id="shadowFilter-g2d2f1a6b277_0_27.8" filterUnits="userSpaceOnUse"><feGaussianBlur in="SourceAlpha" stdDeviation="8.0" result="blur"/><feComponentTransfer in="blur" color-interpolation-filters="sRGB"><feFuncR type="linear" slope="0" intercept="0.2627451"/><feFuncG type="linear" slope="0" intercept="0.2627451"/><feFuncB type="linear" slope="0" intercept="0.2627451"/><feFuncA type="linear" slope="0.7" intercept="0"/></feComponentTransfer></filter></defs><g id="g2d2f1a6b277_0_27.8"><path fill="#134b70" d="m654.147 944.1553l0 0c0 -3.7092896 3.006958 -6.7162476 6.7162476 -6.7162476l598.75653 0c1.78125 0 3.489502 0.70758057 4.7490234 1.9671631c1.2595215 1.2595215 1.9671631 2.9678345 1.9671631 4.7490845l0 67.16589c0 3.7092896 -3.006958 6.7163086 -6.7161865 6.7163086l-598.75653 0c-3.7092896 0 -6.7162476 -3.007019 -6.7162476 -6.7163086z" fill-rule="evenodd"/><path stroke="#595959" stroke-width="1.0" stroke-linejoin="round" stroke-linecap="butt" d="m654.147 944.1553l0 0c0 -3.7092896 3.006958 -6.7162476 6.7162476 -6.7162476l598.75653 0c1.78125 0 3.489502 0.70758057 4.7490234 1.9671631c1.2595215 1.2595215 1.9671631 2.9678345 1.9671631 4.7490845l0 67.16589c0 3.7092896 -3.006958 6.7163086 -6.7161865 6.7163086l-598.75653 0c-3.7092896 0 -6.7162476 -3.007019 -6.7162476 -6.7163086z" fill-rule="evenodd"/></g></g></svg>