<svg version="1.1" viewBox="0.0 0.0 1920.0 1080.0" fill="none" stroke="none" stroke-linecap="square" stroke-miterlimit="10" xmlns:xlink="http://www.w3.org/1999/xlink" xmlns="http://www.w3.org/2000/svg"><clipPath id="g2d2f1a6b277_0_6.0"><path d="m0 0l1920.0 0l0 1080.0l-1920.0 0l0 -1080.0z" clip-rule="nonzero"/></clipPath><g clip-path="url(#g2d2f1a6b277_0_6.0)"><path fill="#201e43" d="m0 0l1920.0 0l0 1080.0l-1920.0 0z" fill-rule="evenodd"/><g filter="url(#shadowFilter-g2d2f1a6b277_0_6.1)"><use xlink:href="#g2d2f1a6b277_0_6.1" transform="matrix(1.0 0.0 0.0 1.0 -9.192388188976373 -9.192388188976373)"/></g><defs><filter id="shadowFilter-g2d2f1a6b277_0_6.1" filterUnits="userSpaceOnUse"><feGaussianBlur in="SourceAlpha" stdDeviation="8.0" result="blur"/><feComponentTransfer in="blur" color-interpolation-filters="sRGB"><feFuncR type="linear" slope="0" intercept="0.2627451"/><feFuncG type="linear" slope="0" intercept="0.2627451"/><feFuncB type="linear" slope="0" intercept="0.2627451"/><feFuncA type="linear" slope="0.7" intercept="0"/></feComponentTransfer></filter></defs><g id="g2d2f1a6b277_0_6.1"><path fill="#134b70" d="m327.49606 47.90348l0 0c0 -6.424221 5.207855 -11.63208 11.63208 -11.63208l1241.7437 0c3.085083 0 6.043701 1.2255173 8.225098 3.4069557c2.1815186 2.1814384 3.4069824 5.140106 3.4069824 8.225124l0 116.32639c0 6.4242096 -5.2078857 11.63208 -11.63208 11.63208l-1241.7437 0c-6.424225 0 -11.63208 -5.2078705 -11.63208 -11.63208z" fill-rule="evenodd"/><path stroke="#595959" stroke-width="1.0" stroke-linejoin="round" stroke-linecap="butt" d="m327.49606 47.90348l0 0c0 -6.424221 5.207855 -11.63208 11.63208 -11.63208l1241.7437 0c3.085083 0 6.043701 1.2255173 8.225098 3.4069557c2.1815186 2.1814384 3.4069824 5.140106 3.4069824 8.225124l0 116.32639c0 6.4242096 -5.2078857 11.63208 -11.63208 11.63208l-1241.7437 0c-6.424225 0 -11.63208 -5.2078705 -11.63208 -11.63208z" fill-rule="evenodd"/></g><g filter="url(#shadowFilter-g2d2f1a6b277_0_6.2)"><use xlink:href="#g2d2f1a6b277_0_6.2" transform="matrix(1.0 0.0 0.0 1.0 9.192388188976373 9.192388188976373)"/></g><defs><filter id="shadowFilter-g2d2f1a6b277_0_6.2" filterUnits="userSpaceOnUse"><feGaussianBlur in="SourceAlpha" stdDeviation="8.0" result="blur"/><feComponentTransfer in="blur" color-interpolation-filters="sRGB"><feFuncR type="linear" slope="0" intercept="0.2627451"/><feFuncG type="linear" slope="0" intercept="0.2627451"/><feFuncB type="linear" slope="0" intercept="0.2627451"/><feFuncA type="linear" slope="0.7" intercept="0"/></feComponentTransfer></filter></defs><g id="g2d2f1a6b277_0_6.2"><path fill="#134b70" d="m327.49606 47.90348l0 0c0 -6.424221 5.207855 -11.63208 11.63208 -11.63208l1241.7437 0c3.085083 0 6.043701 1.2255173 8.225098 3.4069557c2.1815186 2.1814384 3.4069824 5.140106 3.4069824 8.225124l0 116.32639c0 6.4242096 -5.2078857 11.63208 -11.63208 11.63208l-1241.7437 0c-6.424225 0 -11.63208 -5.2078705 -11.63208 -11.63208z" fill-rule="evenodd"/><path stroke="#595959" stroke-width="1.0" stroke-linejoin="round" stroke-linecap="butt" d="m327.49606 47.90348l0 0c0 -6.424221 5.207855 -11.63208 11.63208 -11.63208l1241.7437 0c3.085083 0 6.043701 1.2255173 8.225098 3.4069557c2.1815186 2.1814384 3.4069824 5.140106 3.4069824 8.225124l0 116.32639c0 6.4242096 -5.2078857 11.63208 -11.63208 11.63208l-1241.7437 0c-6.424225 0 -11.63208 -5.2078705 -11.63208 -11.63208z" fill-rule="evenodd"/></g><g filter="url(#shadowFilter-g2d2f1a6b277_0_6.3)"><use xlink:href="#g2d2f1a6b277_0_6.3" transform="matrix(1.0 0.0 0.0 1.0 9.192388188976373 9.192388188976334)"/></g><defs><filter id="shadowFilter-g2d2f1a6b277_0_6.3" filterUnits="userSpaceOnUse"><feGaussianBlur in="SourceAlpha" stdDeviation="8.0" result="blur"/><feComponentTransfer in="blur" color-interpolation-filters="sRGB"><feFuncR type="linear" slope="0" intercept="0.2627451"/><feFuncG type="linear" slope="0" intercept="0.2627451"/><feFuncB type="linear" slope="0" intercept="0.2627451"/><feFuncA type="linear" slope="0.7" intercept="0"/></feComponentTransfer></filter></defs><g id="g2d2f1a6b277_0_6.3"><path fill="#134b70" d="m93.77165 232.12193l0 0c0 -14.459564 11.7217865 -26.18135 26.181343 -26.18135l1679.2279 0c6.9437256 0 13.603027 2.7583923 18.51294 7.668335c4.910034 4.909958 7.668335 11.56929 7.668335 18.513016l0 653.905c0 14.459534 -11.721802 26.181335 -26.181274 26.181335l-1679.2279 0c-14.459557 0 -26.181343 -11.721802 -26.181343 -26.181335z" fill-rule="evenodd"/><path stroke="#595959" stroke-width="1.0" stroke-linejoin="round" stroke-linecap="butt" d="m93.77165 232.12193l0 0c0 -14.459564 11.7217865 -26.18135 26.181343 -26.18135l1679.2279 0c6.9437256 0 13.603027 2.7583923 18.51294 7.668335c4.910034 4.909958 7.668335 11.56929 7.668335 18.513016l0 653.905c0 14.459534 -11.721802 26.181335 -26.181274 26.181335l-1679.2279 0c-14.459557 0 -26.181343 -11.721802 -26.181343 -26.181335z" fill-rule="evenodd"/></g><g filter="url(#shadowFilter-g2d2f1a6b277_0_6.4)"><use xlink:href="#g2d2f1a6b277_0_6.4" transform="matrix(1.0 0.0 0.0 1.0 -9.192388188976373 -9.192388188976334)"/></g><defs><filter id="shadowFilter-g2d2f1a6b277_0_6.4" filterUnits="userSpaceOnUse"><feGaussianBlur in="SourceAlpha" stdDeviation="8.0" result="blur"/><feComponentTransfer in="blur" color-interpolation-filters="sRGB"><feFuncR type="linear" slope="0" intercept="0.2627451"/><feFuncG type="linear" slope="0" intercept="0.2627451"/><feFuncB type="linear" slope="0" intercept="0.2627451"/><feFuncA type="linear" slope="0.7" intercept="0"/></feComponentTransfer></filter></defs><g id="g2d2f1a6b277_0_6.4"><path fill="#134b70" d="m93.77165 232.12193l0 0c0 -14.459564 11.7217865 -26.18135 26.181343 -26.18135l1679.2279 0c6.9437256 0 13.603027 2.7583923 18.51294 7.668335c4.910034 4.909958 7.668335 11.56929 7.668335 18.513016l0 653.905c0 14.459534 -11.721802 26.181335 -26.181274 26.181335l-1679.2279 0c-14.459557 0 -26.181343 -11.721802 -26.181343 -26.181335z" fill-rule="evenodd"/><path stroke="#595959" stroke-width="1.0" stroke-linejoin="round" stroke-linecap="butt" d="m93.77165 232.12193l0 0c0 -14.459564 11.7217865 -26.18135 26.181343 -26.18135l1679.2279 0c6.9437256 0 13.603027 2.7583923 18.51294 7.668335c4.910034 4.909958 7.668335 11.56929 7.668335 18.513016l0 653.905c0 14.459534 -11.721802 26.181335 -26.181274 26.181335l-1679.2279 0c-14.459557 0 -26.181343 -11.721802 -26.181343 -26.181335z" fill-rule="evenodd"/></g><g filter="url(#shadowFilter-g2d2f1a6b277_0_6.5)"><use xlink:href="#g2d2f1a6b277_0_6.5" transform="matrix(1.0 0.0 0.0 1.0 9.19238818897641 9.192388188976334)"/></g><defs><filter id="shadowFilter-g2d2f1a6b277_0_6.5" filterUnits="userSpaceOnUse"><feGaussianBlur in="SourceAlpha" stdDeviation="8.0" result="blur"/><feComponentTransfer in="blur" color-interpolation-filters="sRGB"><feFuncR type="linear" slope="0" intercept="0.2627451"/><feFuncG type="linear" slope="0" intercept="0.2627451"/><feFuncB type="linear" slope="0" intercept="0.2627451"/><feFuncA type="linear" slope="0.7" intercept="0"/></feComponentTransfer></filter></defs><g id="g2d2f1a6b277_0_6.5"><path fill="#134b70" d="m482.231 949.4144l0 0c0 -3.9194946 3.1773376 -7.096863 7.0968323 -7.096863l921.23944 0c1.8822021 0 3.6872559 0.7477417 5.0181885 2.0786133c1.3309326 1.3309326 2.0786133 3.1360474 2.0786133 5.0182495l0 70.97168c0 3.9194336 -3.1773682 7.0968018 -7.0968018 7.0968018l-921.23944 0c-3.9194946 0 -7.0968323 -3.1773682 -7.0968323 -7.0968018z" fill-rule="evenodd"/><path stroke="#595959" stroke-width="1.0" stroke-linejoin="round" stroke-linecap="butt" d="m482.231 949.4144l0 0c0 -3.9194946 3.1773376 -7.096863 7.0968323 -7.096863l921.23944 0c1.8822021 0 3.6872559 0.7477417 5.0181885 2.0786133c1.3309326 1.3309326 2.0786133 3.1360474 2.0786133 5.0182495l0 70.97168c0 3.9194336 -3.1773682 7.0968018 -7.0968018 7.0968018l-921.23944 0c-3.9194946 0 -7.0968323 -3.1773682 -7.0968323 -7.0968018z" fill-rule="evenodd"/></g><g filter="url(#shadowFilter-g2d2f1a6b277_0_6.6)"><use xlink:href="#g2d2f1a6b277_0_6.6" transform="matrix(1.0 0.0 0.0 1.0 -9.19238818897641 -9.192388188976334)"/></g><defs><filter id="shadowFilter-g2d2f1a6b277_0_6.6" filterUnits="userSpaceOnUse"><feGaussianBlur in="SourceAlpha" stdDeviation="8.0" result="blur"/><feComponentTransfer in="blur" color-interpolation-filters="sRGB"><feFuncR type="linear" slope="0" intercept="0.2627451"/><feFuncG type="linear" slope="0" intercept="0.2627451"/><feFuncB type="linear" slope="0" intercept="0.2627451"/><feFuncA type="linear" slope="0.7" intercept="0"/></feComponentTransfer></filter></defs><g id="g2d2f1a6b277_0_6.6"><path fill="#134b70" d="m482.231 949.4144l0 0c0 -3.9194946 3.1773376 -7.096863 7.0968323 -7.096863l921.23944 0c1.8822021 0 3.6872559 0.7477417 5.0181885 2.0786133c1.3309326 1.3309326 2.0786133 3.1360474 2.0786133 5.0182495l0 70.97168c0 3.9194336 -3.1773682 7.0968018 -7.0968018 7.0968018l-921.23944 0c-3.9194946 0 -7.0968323 -3.1773682 -7.0968323 -7.0968018z" fill-rule="evenodd"/><path stroke="#595959" stroke-width="1.0" stroke-linejoin="round" stroke-linecap="butt" d="m482.231 949.4144l0 0c0 -3.9194946 3.1773376 -7.096863 7.0968323 -7.096863l921.23944 0c1.8822021 0 3.6872559 0.7477417 5.0181885 2.0786133c1.3309326 1.3309326 2.0786133 3.1360474 2.0786133 5.0182495l0 70.97168c0 3.9194336 -3.1773682 7.0968018 -7.0968018 7.0968018l-921.23944 0c-3.9194946 0 -7.0968323 -3.1773682 -7.0968323 -7.0968018z" fill-rule="evenodd"/></g></g></svg>