<svg version="1.1" viewBox="0.0 0.0 1920.0 1080.0" fill="none" stroke="none" stroke-linecap="square" stroke-miterlimit="10" xmlns:xlink="http://www.w3.org/1999/xlink" xmlns="http://www.w3.org/2000/svg"><clipPath id="g2d2f1a6b277_0_35.0"><path d="m0 0l1920.0 0l0 1080.0l-1920.0 0l0 -1080.0z" clip-rule="nonzero"/></clipPath><g clip-path="url(#g2d2f1a6b277_0_35.0)"><path fill="#201e43" d="m0 0l1920.0 0l0 1080.0l-1920.0 0z" fill-rule="evenodd"/><g filter="url(#shadowFilter-g2d2f1a6b277_0_35.1)"><use xlink:href="#g2d2f1a6b277_0_35.1" transform="matrix(1.0 0.0 0.0 1.0 -9.192388188976334 -9.192388188976373)"/></g><defs><filter id="shadowFilter-g2d2f1a6b277_0_35.1" filterUnits="userSpaceOnUse"><feGaussianBlur in="SourceAlpha" stdDeviation="8.0" result="blur"/><feComponentTransfer in="blur" color-interpolation-filters="sRGB"><feFuncR type="linear" slope="0" intercept="0.2627451"/><feFuncG type="linear" slope="0" intercept="0.2627451"/><feFuncB type="linear" slope="0" intercept="0.2627451"/><feFuncA type="linear" slope="0.7" intercept="0"/></feComponentTransfer></filter></defs><g id="g2d2f1a6b277_0_35.1"><path fill="#134b70" d="m707.80316 45.4641l0 0c0 -6.424217 5.2078247 -11.63208 11.63208 -11.63208l481.61774 0c3.084961 0 6.043701 1.2255211 8.225098 3.4069595c2.1813965 2.1814384 3.4069824 5.1401024 3.4069824 8.225121l0 116.3264c0 6.4242096 -5.2078857 11.63208 -11.63208 11.63208l-481.61774 0c-6.4242554 0 -11.63208 -5.2078705 -11.63208 -11.63208z" fill-rule="evenodd"/><path stroke="#595959" stroke-width="1.0" stroke-linejoin="round" stroke-linecap="butt" d="m707.80316 45.4641l0 0c0 -6.424217 5.2078247 -11.63208 11.63208 -11.63208l481.61774 0c3.084961 0 6.043701 1.2255211 8.225098 3.4069595c2.1813965 2.1814384 3.4069824 5.1401024 3.4069824 8.225121l0 116.3264c0 6.4242096 -5.2078857 11.63208 -11.63208 11.63208l-481.61774 0c-6.4242554 0 -11.63208 -5.2078705 -11.63208 -11.63208z" fill-rule="evenodd"/></g><g filter="url(#shadowFilter-g2d2f1a6b277_0_35.2)"><use xlink:href="#g2d2f1a6b277_0_35.2" transform="matrix(1.0 0.0 0.0 1.0 -9.19238818897641 -9.192388188976334)"/></g><defs><filter id="shadowFilter-g2d2f1a6b277_0_35.2" filterUnits="userSpaceOnUse"><feGaussianBlur in="SourceAlpha" stdDeviation="8.0" result="blur"/><feComponentTransfer in="blur" color-interpolation-filters="sRGB"><feFuncR type="linear" slope="0" intercept="0.2627451"/><feFuncG type="linear" slope="0" intercept="0.2627451"/><feFuncB type="linear" slope="0" intercept="0.2627451"/><feFuncA type="linear" slope="0.7" intercept="0"/></feComponentTransfer></filter></defs><g id="g2d2f1a6b277_0_35.2"><path fill="#134b70" d="m356.5853 232.84538l0 0c0 -16.25412 13.176575 -29.43068 29.430695 -29.43068l1148.4457 0c7.805542 0 15.291382 3.1007233 20.810669 8.620041c5.519287 5.5193176 8.619995 13.005127 8.619995 20.810638l0 638.71344c0 16.25409 -13.176514 29.430664 -29.430664 29.430664l-1148.4457 0c-16.25412 0 -29.430695 -13.176575 -29.430695 -29.430664z" fill-rule="evenodd"/><path stroke="#595959" stroke-width="1.0" stroke-linejoin="round" stroke-linecap="butt" d="m356.5853 232.84538l0 0c0 -16.25412 13.176575 -29.43068 29.430695 -29.43068l1148.4457 0c7.805542 0 15.291382 3.1007233 20.810669 8.620041c5.519287 5.5193176 8.619995 13.005127 8.619995 20.810638l0 638.71344c0 16.25409 -13.176514 29.430664 -29.430664 29.430664l-1148.4457 0c-16.25412 0 -29.430695 -13.176575 -29.430695 -29.430664z" fill-rule="evenodd"/></g><g filter="url(#shadowFilter-g2d2f1a6b277_0_35.3)"><use xlink:href="#g2d2f1a6b277_0_35.3" transform="matrix(1.0 0.0 0.0 1.0 9.19238818897641 9.192388188976334)"/></g><defs><filter id="shadowFilter-g2d2f1a6b277_0_35.3" filterUnits="userSpaceOnUse"><feGaussianBlur in="SourceAlpha" stdDeviation="8.0" result="blur"/><feComponentTransfer in="blur" color-interpolation-filters="sRGB"><feFuncR type="linear" slope="0" intercept="0.2627451"/><feFuncG type="linear" slope="0" intercept="0.2627451"/><feFuncB type="linear" slope="0" intercept="0.2627451"/><feFuncA type="linear" slope="0.7" intercept="0"/></feComponentTransfer></filter></defs><g id="g2d2f1a6b277_0_35.3"><path fill="#134b70" d="m654.147 944.1553l0 0c0 -3.7092896 3.006958 -6.7162476 6.7162476 -6.7162476l598.75653 0c1.78125 0 3.489502 0.70758057 4.7490234 1.9671631c1.2595215 1.2595215 1.9671631 2.9678345 1.9671631 4.7490845l0 67.16589c0 3.7092896 -3.006958 6.7163086 -6.7161865 6.7163086l-598.75653 0c-3.7092896 0 -6.7162476 -3.007019 -6.7162476 -6.7163086z" fill-rule="evenodd"/><path stroke="#595959" stroke-width="1.0" stroke-linejoin="round" stroke-linecap="butt" d="m654.147 944.1553l0 0c0 -3.7092896 3.006958 -6.7162476 6.7162476 -6.7162476l598.75653 0c1.78125 0 3.489502 0.70758057 4.7490234 1.9671631c1.2595215 1.2595215 1.9671631 2.9678345 1.9671631 4.7490845l0 67.16589c0 3.7092896 -3.006958 6.7163086 -6.7161865 6.7163086l-598.75653 0c-3.7092896 0 -6.7162476 -3.007019 -6.7162476 -6.7163086z" fill-rule="evenodd"/></g><g filter="url(#shadowFilter-g2d2f1a6b277_0_35.4)"><use xlink:href="#g2d2f1a6b277_0_35.4" transform="matrix(1.0 0.0 0.0 1.0 -9.19238818897641 -9.192388188976334)"/></g><defs><filter id="shadowFilter-g2d2f1a6b277_0_35.4" filterUnits="userSpaceOnUse"><feGaussianBlur in="SourceAlpha" stdDeviation="8.0" result="blur"/><feComponentTransfer in="blur" color-interpolation-filters="sRGB"><feFuncR type="linear" slope="0" intercept="0.2627451"/><feFuncG type="linear" slope="0" intercept="0.2627451"/><feFuncB type="linear" slope="0" intercept="0.2627451"/><feFuncA type="linear" slope="0.7" intercept="0"/></feComponentTransfer></filter></defs><g id="g2d2f1a6b277_0_35.4"><path fill="#134b70" d="m654.147 944.1553l0 0c0 -3.7092896 3.006958 -6.7162476 6.7162476 -6.7162476l598.75653 0c1.78125 0 3.489502 0.70758057 4.7490234 1.9671631c1.2595215 1.2595215 1.9671631 2.9678345 1.9671631 4.7490845l0 67.16589c0 3.7092896 -3.006958 6.7163086 -6.7161865 6.7163086l-598.75653 0c-3.7092896 0 -6.7162476 -3.007019 -6.7162476 -6.7163086z" fill-rule="evenodd"/><path stroke="#595959" stroke-width="1.0" stroke-linejoin="round" stroke-linecap="butt" d="m654.147 944.1553l0 0c0 -3.7092896 3.006958 -6.7162476 6.7162476 -6.7162476l598.75653 0c1.78125 0 3.489502 0.70758057 4.7490234 1.9671631c1.2595215 1.2595215 1.9671631 2.9678345 1.9671631 4.7490845l0 67.16589c0 3.7092896 -3.006958 6.7163086 -6.7161865 6.7163086l-598.75653 0c-3.7092896 0 -6.7162476 -3.007019 -6.7162476 -6.7163086z" fill-rule="evenodd"/></g><g filter="url(#shadowFilter-g2d2f1a6b277_0_35.5)"><use xlink:href="#g2d2f1a6b277_0_35.5" transform="matrix(1.0 0.0 0.0 1.0 9.192388188976334 9.192388188976373)"/></g><defs><filter id="shadowFilter-g2d2f1a6b277_0_35.5" filterUnits="userSpaceOnUse"><feGaussianBlur in="SourceAlpha" stdDeviation="8.0" result="blur"/><feComponentTransfer in="blur" color-interpolation-filters="sRGB"><feFuncR type="linear" slope="0" intercept="0.2627451"/><feFuncG type="linear" slope="0" intercept="0.2627451"/><feFuncB type="linear" slope="0" intercept="0.2627451"/><feFuncA type="linear" slope="0.7" intercept="0"/></feComponentTransfer></filter></defs><g id="g2d2f1a6b277_0_35.5"><path fill="#134b70" d="m707.80316 45.4641l0 0c0 -6.424217 5.2078247 -11.63208 11.63208 -11.63208l481.61774 0c3.084961 0 6.043701 1.2255211 8.225098 3.4069595c2.1813965 2.1814384 3.4069824 5.1401024 3.4069824 8.225121l0 116.3264c0 6.4242096 -5.2078857 11.63208 -11.63208 11.63208l-481.61774 0c-6.4242554 0 -11.63208 -5.2078705 -11.63208 -11.63208z" fill-rule="evenodd"/><path stroke="#595959" stroke-width="1.0" stroke-linejoin="round" stroke-linecap="butt" d="m707.80316 45.4641l0 0c0 -6.424217 5.2078247 -11.63208 11.63208 -11.63208l481.61774 0c3.084961 0 6.043701 1.2255211 8.225098 3.4069595c2.1813965 2.1814384 3.4069824 5.1401024 3.4069824 8.225121l0 116.3264c0 6.4242096 -5.2078857 11.63208 -11.63208 11.63208l-481.61774 0c-6.4242554 0 -11.63208 -5.2078705 -11.63208 -11.63208z" fill-rule="evenodd"/></g><g filter="url(#shadowFilter-g2d2f1a6b277_0_35.6)"><use xlink:href="#g2d2f1a6b277_0_35.6" transform="matrix(1.0 0.0 0.0 1.0 9.19238818897641 9.192388188976334)"/></g><defs><filter id="shadowFilter-g2d2f1a6b277_0_35.6" filterUnits="userSpaceOnUse"><feGaussianBlur in="SourceAlpha" stdDeviation="8.0" result="blur"/><feComponentTransfer in="blur" color-interpolation-filters="sRGB"><feFuncR type="linear" slope="0" intercept="0.2627451"/><feFuncG type="linear" slope="0" intercept="0.2627451"/><feFuncB type="linear" slope="0" intercept="0.2627451"/><feFuncA type="linear" slope="0.7" intercept="0"/></feComponentTransfer></filter></defs><g id="g2d2f1a6b277_0_35.6"><path fill="#134b70" d="m356.5853 232.84538l0 0c0 -16.25412 13.176575 -29.43068 29.430695 -29.43068l1148.4457 0c7.805542 0 15.291382 3.1007233 20.810669 8.620041c5.519287 5.5193176 8.619995 13.005127 8.619995 20.810638l0 638.71344c0 16.25409 -13.176514 29.430664 -29.430664 29.430664l-1148.4457 0c-16.25412 0 -29.430695 -13.176575 -29.430695 -29.430664z" fill-rule="evenodd"/><path stroke="#595959" stroke-width="1.0" stroke-linejoin="round" stroke-linecap="butt" d="m356.5853 232.84538l0 0c0 -16.25412 13.176575 -29.43068 29.430695 -29.43068l1148.4457 0c7.805542 0 15.291382 3.1007233 20.810669 8.620041c5.519287 5.5193176 8.619995 13.005127 8.619995 20.810638l0 638.71344c0 16.25409 -13.176514 29.430664 -29.430664 29.430664l-1148.4457 0c-16.25412 0 -29.430695 -13.176575 -29.430695 -29.430664z" fill-rule="evenodd"/></g></g></svg>