<svg version="1.1" viewBox="0.0 0.0 1920.0 1080.0" fill="none" stroke="none" stroke-linecap="square" stroke-miterlimit="10" xmlns:xlink="http://www.w3.org/1999/xlink" xmlns="http://www.w3.org/2000/svg"><clipPath id="g2d2f1a6b277_0_32.0"><path d="m0 0l1920.0 0l0 1080.0l-1920.0 0l0 -1080.0z" clip-rule="nonzero"/></clipPath><g clip-path="url(#g2d2f1a6b277_0_32.0)"><path fill="#201e43" d="m0 0l1920.0 0l0 1080.0l-1920.0 0z" fill-rule="evenodd"/><g filter="url(#shadowFilter-g2d2f1a6b277_0_32.1)"><use xlink:href="#g2d2f1a6b277_0_32.1" transform="matrix(1.0 0.0 0.0 1.0 -9.19238818897641 -9.192388188976373)"/></g><defs><filter id="shadowFilter-g2d2f1a6b277_0_32.1" filterUnits="userSpaceOnUse"><feGaussianBlur in="SourceAlpha" stdDeviation="8.0" result="blur"/><feComponentTransfer in="blur" color-interpolation-filters="sRGB"><feFuncR type="linear" slope="0" intercept="0.2627451"/><feFuncG type="linear" slope="0" intercept="0.2627451"/><feFuncB type="linear" slope="0" intercept="0.2627451"/><feFuncA type="linear" slope="0.7" intercept="0"/></feComponentTransfer></filter></defs><g id="g2d2f1a6b277_0_32.1"><path fill="#134b70" d="m663.9029 47.90242l0 0c0 -6.424217 5.2078247 -11.63208 11.63208 -11.63208l569.4288 0c3.084961 0 6.043701 1.2255211 8.225098 3.4069595c2.1813965 2.1814384 3.4069824 5.1401024 3.4069824 8.225121l0 116.326385c0 6.424225 -5.2078857 11.63208 -11.63208 11.63208l-569.4288 0c-6.4242554 0 -11.63208 -5.207855 -11.63208 -11.63208z" fill-rule="evenodd"/><path stroke="#595959" stroke-width="1.0" stroke-linejoin="round" stroke-linecap="butt" d="m663.9029 47.90242l0 0c0 -6.424217 5.2078247 -11.63208 11.63208 -11.63208l569.4288 0c3.084961 0 6.043701 1.2255211 8.225098 3.4069595c2.1813965 2.1814384 3.4069824 5.1401024 3.4069824 8.225121l0 116.326385c0 6.424225 -5.2078857 11.63208 -11.63208 11.63208l-569.4288 0c-6.4242554 0 -11.63208 -5.207855 -11.63208 -11.63208z" fill-rule="evenodd"/></g><g filter="url(#shadowFilter-g2d2f1a6b277_0_32.2)"><use xlink:href="#g2d2f1a6b277_0_32.2" transform="matrix(1.0 0.0 0.0 1.0 -9.192388188976373 -9.192388188976334)"/></g><defs><filter id="shadowFilter-g2d2f1a6b277_0_32.2" filterUnits="userSpaceOnUse"><feGaussianBlur in="SourceAlpha" stdDeviation="8.0" result="blur"/><feComponentTransfer in="blur" color-interpolation-filters="sRGB"><feFuncR type="linear" slope="0" intercept="0.2627451"/><feFuncG type="linear" slope="0" intercept="0.2627451"/><feFuncB type="linear" slope="0" intercept="0.2627451"/><feFuncA type="linear" slope="0.7" intercept="0"/></feComponentTransfer></filter></defs><g id="g2d2f1a6b277_0_32.2"><path fill="#134b70" d="m94.055115 240.66762l0 0c0 -19.149292 15.523575 -34.672867 34.672882 -34.672867l1663.9141 0c9.195801 0 18.015015 3.6530304 24.517456 10.155441c6.5024414 6.502426 10.1553955 15.3216095 10.1553955 24.517426l0 752.481c0 19.149353 -15.52356 34.672913 -34.67285 34.672913l-1663.9141 0c-19.149307 0 -34.672882 -15.52356 -34.672882 -34.672913z" fill-rule="evenodd"/><path stroke="#595959" stroke-width="1.0" stroke-linejoin="round" stroke-linecap="butt" d="m94.055115 240.66762l0 0c0 -19.149292 15.523575 -34.672867 34.672882 -34.672867l1663.9141 0c9.195801 0 18.015015 3.6530304 24.517456 10.155441c6.5024414 6.502426 10.1553955 15.3216095 10.1553955 24.517426l0 752.481c0 19.149353 -15.52356 34.672913 -34.67285 34.672913l-1663.9141 0c-19.149307 0 -34.672882 -15.52356 -34.672882 -34.672913z" fill-rule="evenodd"/></g><g filter="url(#shadowFilter-g2d2f1a6b277_0_32.3)"><use xlink:href="#g2d2f1a6b277_0_32.3" transform="matrix(1.0 0.0 0.0 1.0 9.19238818897641 9.192388188976373)"/></g><defs><filter id="shadowFilter-g2d2f1a6b277_0_32.3" filterUnits="userSpaceOnUse"><feGaussianBlur in="SourceAlpha" stdDeviation="8.0" result="blur"/><feComponentTransfer in="blur" color-interpolation-filters="sRGB"><feFuncR type="linear" slope="0" intercept="0.2627451"/><feFuncG type="linear" slope="0" intercept="0.2627451"/><feFuncB type="linear" slope="0" intercept="0.2627451"/><feFuncA type="linear" slope="0.7" intercept="0"/></feComponentTransfer></filter></defs><g id="g2d2f1a6b277_0_32.3"><path fill="#134b70" d="m663.9029 47.90242l0 0c0 -6.424217 5.2078247 -11.63208 11.63208 -11.63208l569.4288 0c3.084961 0 6.043701 1.2255211 8.225098 3.4069595c2.1813965 2.1814384 3.4069824 5.1401024 3.4069824 8.225121l0 116.326385c0 6.424225 -5.2078857 11.63208 -11.63208 11.63208l-569.4288 0c-6.4242554 0 -11.63208 -5.207855 -11.63208 -11.63208z" fill-rule="evenodd"/><path stroke="#595959" stroke-width="1.0" stroke-linejoin="round" stroke-linecap="butt" d="m663.9029 47.90242l0 0c0 -6.424217 5.2078247 -11.63208 11.63208 -11.63208l569.4288 0c3.084961 0 6.043701 1.2255211 8.225098 3.4069595c2.1813965 2.1814384 3.4069824 5.1401024 3.4069824 8.225121l0 116.326385c0 6.424225 -5.2078857 11.63208 -11.63208 11.63208l-569.4288 0c-6.4242554 0 -11.63208 -5.207855 -11.63208 -11.63208z" fill-rule="evenodd"/></g><g filter="url(#shadowFilter-g2d2f1a6b277_0_32.4)"><use xlink:href="#g2d2f1a6b277_0_32.4" transform="matrix(1.0 0.0 0.0 1.0 9.192388188976373 9.192388188976334)"/></g><defs><filter id="shadowFilter-g2d2f1a6b277_0_32.4" filterUnits="userSpaceOnUse"><feGaussianBlur in="SourceAlpha" stdDeviation="8.0" result="blur"/><feComponentTransfer in="blur" color-interpolation-filters="sRGB"><feFuncR type="linear" slope="0" intercept="0.2627451"/><feFuncG type="linear" slope="0" intercept="0.2627451"/><feFuncB type="linear" slope="0" intercept="0.2627451"/><feFuncA type="linear" slope="0.7" intercept="0"/></feComponentTransfer></filter></defs><g id="g2d2f1a6b277_0_32.4"><path fill="#134b70" d="m94.055115 240.66762l0 0c0 -19.149292 15.523575 -34.672867 34.672882 -34.672867l1663.9141 0c9.195801 0 18.015015 3.6530304 24.517456 10.155441c6.5024414 6.502426 10.1553955 15.3216095 10.1553955 24.517426l0 752.481c0 19.149353 -15.52356 34.672913 -34.67285 34.672913l-1663.9141 0c-19.149307 0 -34.672882 -15.52356 -34.672882 -34.672913z" fill-rule="evenodd"/><path stroke="#595959" stroke-width="1.0" stroke-linejoin="round" stroke-linecap="butt" d="m94.055115 240.66762l0 0c0 -19.149292 15.523575 -34.672867 34.672882 -34.672867l1663.9141 0c9.195801 0 18.015015 3.6530304 24.517456 10.155441c6.5024414 6.502426 10.1553955 15.3216095 10.1553955 24.517426l0 752.481c0 19.149353 -15.52356 34.672913 -34.67285 34.672913l-1663.9141 0c-19.149307 0 -34.672882 -15.52356 -34.672882 -34.672913z" fill-rule="evenodd"/></g></g></svg>