<svg version="1.1" viewBox="0.0 0.0 1920.0 1080.0" fill="none" stroke="none" stroke-linecap="square" stroke-miterlimit="10" xmlns:xlink="http://www.w3.org/1999/xlink" xmlns="http://www.w3.org/2000/svg"><clipPath id="p.0"><path d="m0 0l1920.0 0l0 1080.0l-1920.0 0l0 -1080.0z" clip-rule="nonzero"/></clipPath><g clip-path="url(#p.0)"><path fill="#201e43" d="m0 0l1920.0 0l0 1080.0l-1920.0 0z" fill-rule="evenodd"/><g filter="url(#shadowFilter-p.1)"><use xlink:href="#p.1" transform="matrix(1.0 0.0 0.0 1.0 9.192388188976373 9.19238818897641)"/></g><defs><filter id="shadowFilter-p.1" filterUnits="userSpaceOnUse"><feGaussianBlur in="SourceAlpha" stdDeviation="8.0" result="blur"/><feComponentTransfer in="blur" color-interpolation-filters="sRGB"><feFuncR type="linear" slope="0" intercept="0.2627451"/><feFuncG type="linear" slope="0" intercept="0.2627451"/><feFuncB type="linear" slope="0" intercept="0.2627451"/><feFuncA type="linear" slope="0.7" intercept="0"/></feComponentTransfer></filter></defs><g id="p.1"><path fill="#134b70" d="m291.40158 189.42715l0 0c0 -9.134796 7.4052124 -16.540009 16.540009 -16.540009l600.84125 0c4.3866577 0 8.593689 1.7425995 11.695557 4.844452c3.1018066 3.1018524 4.8444214 7.3088684 4.8444214 11.695557l0 165.40814c0 9.134827 -7.4052124 16.54004 -16.539978 16.54004l-600.84125 0c-9.134796 0 -16.540009 -7.4052124 -16.540009 -16.54004z" fill-rule="evenodd"/><path stroke="#595959" stroke-width="1.0" stroke-linejoin="round" stroke-linecap="butt" d="m291.40158 189.42715l0 0c0 -9.134796 7.4052124 -16.540009 16.540009 -16.540009l600.84125 0c4.3866577 0 8.593689 1.7425995 11.695557 4.844452c3.1018066 3.1018524 4.8444214 7.3088684 4.8444214 11.695557l0 165.40814c0 9.134827 -7.4052124 16.54004 -16.539978 16.54004l-600.84125 0c-9.134796 0 -16.540009 -7.4052124 -16.540009 -16.54004z" fill-rule="evenodd"/></g><g filter="url(#shadowFilter-p.2)"><use xlink:href="#p.2" transform="matrix(1.0 0.0 0.0 1.0 9.192388188976334 9.19238818897641)"/></g><defs><filter id="shadowFilter-p.2" filterUnits="userSpaceOnUse"><feGaussianBlur in="SourceAlpha" stdDeviation="8.0" result="blur"/><feComponentTransfer in="blur" color-interpolation-filters="sRGB"><feFuncR type="linear" slope="0" intercept="0.2627451"/><feFuncG type="linear" slope="0" intercept="0.2627451"/><feFuncB type="linear" slope="0" intercept="0.2627451"/><feFuncA type="linear" slope="0.7" intercept="0"/></feComponentTransfer></filter></defs><g id="p.2"><path fill="#134b70" d="m994.67456 189.42715l0 0c0 -9.134796 7.4052124 -16.540009 16.539978 -16.540009l600.84125 0c4.3867188 0 8.59375 1.7425995 11.695557 4.844452c3.1018066 3.1018524 4.8444824 7.3088684 4.8444824 11.695557l0 165.40814c0 9.134827 -7.4052734 16.54004 -16.54004 16.54004l-600.84125 0c-9.134766 0 -16.539978 -7.4052124 -16.539978 -16.54004z" fill-rule="evenodd"/><path stroke="#595959" stroke-width="1.0" stroke-linejoin="round" stroke-linecap="butt" d="m994.67456 189.42715l0 0c0 -9.134796 7.4052124 -16.540009 16.539978 -16.540009l600.84125 0c4.3867188 0 8.59375 1.7425995 11.695557 4.844452c3.1018066 3.1018524 4.8444824 7.3088684 4.8444824 11.695557l0 165.40814c0 9.134827 -7.4052734 16.54004 -16.54004 16.54004l-600.84125 0c-9.134766 0 -16.539978 -7.4052124 -16.539978 -16.54004z" fill-rule="evenodd"/></g><g filter="url(#shadowFilter-p.3)"><use xlink:href="#p.3" transform="matrix(1.0 0.0 0.0 1.0 9.192388188976373 9.192388188976334)"/></g><defs><filter id="shadowFilter-p.3" filterUnits="userSpaceOnUse"><feGaussianBlur in="SourceAlpha" stdDeviation="8.0" result="blur"/><feComponentTransfer in="blur" color-interpolation-filters="sRGB"><feFuncR type="linear" slope="0" intercept="0.2627451"/><feFuncG type="linear" slope="0" intercept="0.2627451"/><feFuncB type="linear" slope="0" intercept="0.2627451"/><feFuncA type="linear" slope="0.7" intercept="0"/></feComponentTransfer></filter></defs><g id="p.3"><path fill="#134b70" d="m291.40158 822.2644l0 0c0 -9.134766 7.4052124 -16.539978 16.540009 -16.539978l600.84125 0c4.3866577 0 8.593689 1.7426147 11.695557 4.8444214c3.1018066 3.1018677 4.8444214 7.308899 4.8444214 11.695557l0 165.4082c0 9.134766 -7.4052124 16.539978 -16.539978 16.539978l-600.84125 0c-9.134796 0 -16.540009 -7.4052124 -16.540009 -16.539978z" fill-rule="evenodd"/><path stroke="#595959" stroke-width="1.0" stroke-linejoin="round" stroke-linecap="butt" d="m291.40158 822.2644l0 0c0 -9.134766 7.4052124 -16.539978 16.540009 -16.539978l600.84125 0c4.3866577 0 8.593689 1.7426147 11.695557 4.8444214c3.1018066 3.1018677 4.8444214 7.308899 4.8444214 11.695557l0 165.4082c0 9.134766 -7.4052124 16.539978 -16.539978 16.539978l-600.84125 0c-9.134796 0 -16.540009 -7.4052124 -16.540009 -16.539978z" fill-rule="evenodd"/></g><g filter="url(#shadowFilter-p.4)"><use xlink:href="#p.4" transform="matrix(1.0 0.0 0.0 1.0 9.192388188976334 9.192388188976334)"/></g><defs><filter id="shadowFilter-p.4" filterUnits="userSpaceOnUse"><feGaussianBlur in="SourceAlpha" stdDeviation="8.0" result="blur"/><feComponentTransfer in="blur" color-interpolation-filters="sRGB"><feFuncR type="linear" slope="0" intercept="0.2627451"/><feFuncG type="linear" slope="0" intercept="0.2627451"/><feFuncB type="linear" slope="0" intercept="0.2627451"/><feFuncA type="linear" slope="0.7" intercept="0"/></feComponentTransfer></filter></defs><g id="p.4"><path fill="#134b70" d="m994.67456 822.2644l0 0c0 -9.134766 7.4052124 -16.539978 16.539978 -16.539978l600.84125 0c4.3867188 0 8.59375 1.7426147 11.695557 4.8444214c3.1018066 3.1018677 4.8444824 7.308899 4.8444824 11.695557l0 165.4082c0 9.134766 -7.4052734 16.539978 -16.54004 16.539978l-600.84125 0c-9.134766 0 -16.539978 -7.4052124 -16.539978 -16.539978z" fill-rule="evenodd"/><path stroke="#595959" stroke-width="1.0" stroke-linejoin="round" stroke-linecap="butt" d="m994.67456 822.2644l0 0c0 -9.134766 7.4052124 -16.539978 16.539978 -16.539978l600.84125 0c4.3867188 0 8.59375 1.7426147 11.695557 4.8444214c3.1018066 3.1018677 4.8444824 7.308899 4.8444824 11.695557l0 165.4082c0 9.134766 -7.4052734 16.539978 -16.54004 16.539978l-600.84125 0c-9.134766 0 -16.539978 -7.4052124 -16.539978 -16.539978z" fill-rule="evenodd"/></g><g filter="url(#shadowFilter-p.5)"><use xlink:href="#p.5" transform="matrix(1.0 0.0 0.0 1.0 9.192388188976373 9.192388188976334)"/></g><defs><filter id="shadowFilter-p.5" filterUnits="userSpaceOnUse"><feGaussianBlur in="SourceAlpha" stdDeviation="8.0" result="blur"/><feComponentTransfer in="blur" color-interpolation-filters="sRGB"><feFuncR type="linear" slope="0" intercept="0.2627451"/><feFuncG type="linear" slope="0" intercept="0.2627451"/><feFuncB type="linear" slope="0" intercept="0.2627451"/><feFuncA type="linear" slope="0.7" intercept="0"/></feComponentTransfer></filter></defs><g id="p.5"><path fill="#134b70" d="m291.40158 464.45044l0 0c0 -13.677582 11.08786 -24.765411 24.765411 -24.765411l1287.666 0c6.5682373 0 12.867432 2.609192 17.51184 7.253601c4.644409 4.6444397 7.25354 10.9436035 7.25354 17.51181l0 247.66602c0 13.677551 -11.087769 24.765442 -24.76538 24.765442l-1287.666 0c-13.677551 0 -24.765411 -11.087891 -24.765411 -24.765442z" fill-rule="evenodd"/><path stroke="#595959" stroke-width="1.0" stroke-linejoin="round" stroke-linecap="butt" d="m291.40158 464.45044l0 0c0 -13.677582 11.08786 -24.765411 24.765411 -24.765411l1287.666 0c6.5682373 0 12.867432 2.609192 17.51184 7.253601c4.644409 4.6444397 7.25354 10.9436035 7.25354 17.51181l0 247.66602c0 13.677551 -11.087769 24.765442 -24.76538 24.765442l-1287.666 0c-13.677551 0 -24.765411 -11.087891 -24.765411 -24.765442z" fill-rule="evenodd"/></g><g filter="url(#shadowFilter-p.6)"><use xlink:href="#p.6" transform="matrix(1.0 0.0 0.0 1.0 9.19238818897641 9.192388188976373)"/></g><defs><filter id="shadowFilter-p.6" filterUnits="userSpaceOnUse"><feGaussianBlur in="SourceAlpha" stdDeviation="8.0" result="blur"/><feComponentTransfer in="blur" color-interpolation-filters="sRGB"><feFuncR type="linear" slope="0" intercept="0.2627451"/><feFuncG type="linear" slope="0" intercept="0.2627451"/><feFuncB type="linear" slope="0" intercept="0.2627451"/><feFuncA type="linear" slope="0.7" intercept="0"/></feComponentTransfer></filter></defs><g id="p.6"><path fill="#134b70" d="m515.49603 29.514023l0 0c0 -5.698017 4.6192017 -10.317173 10.3172 -10.317173l888.6255 0c2.7363281 0 5.3604736 1.0869846 7.29541 3.0218296c1.9348145 1.9348469 3.0217285 4.559059 3.0217285 7.2953434l0 103.17668c0 5.6980133 -4.6191406 10.317169 -10.317139 10.317169l-888.6255 0c-5.697998 0 -10.3172 -4.619156 -10.3172 -10.317169z" fill-rule="evenodd"/><path stroke="#595959" stroke-width="1.0" stroke-linejoin="round" stroke-linecap="butt" d="m515.49603 29.514023l0 0c0 -5.698017 4.6192017 -10.317173 10.3172 -10.317173l888.6255 0c2.7363281 0 5.3604736 1.0869846 7.29541 3.0218296c1.9348145 1.9348469 3.0217285 4.559059 3.0217285 7.2953434l0 103.17668c0 5.6980133 -4.6191406 10.317169 -10.317139 10.317169l-888.6255 0c-5.697998 0 -10.3172 -4.619156 -10.3172 -10.317169z" fill-rule="evenodd"/></g><g filter="url(#shadowFilter-p.7)"><use xlink:href="#p.7" transform="matrix(1.0 0.0 0.0 1.0 -9.192388188976373 -9.19238818897641)"/></g><defs><filter id="shadowFilter-p.7" filterUnits="userSpaceOnUse"><feGaussianBlur in="SourceAlpha" stdDeviation="8.0" result="blur"/><feComponentTransfer in="blur" color-interpolation-filters="sRGB"><feFuncR type="linear" slope="0" intercept="0.2627451"/><feFuncG type="linear" slope="0" intercept="0.2627451"/><feFuncB type="linear" slope="0" intercept="0.2627451"/><feFuncA type="linear" slope="0.7" intercept="0"/></feComponentTransfer></filter></defs><g id="p.7"><path fill="#134b70" d="m291.40158 188.89435l0 0c0 -9.134796 7.4052124 -16.540024 16.540009 -16.540024l600.84125 0c4.3866577 0 8.593689 1.7426147 11.695557 4.844467c3.1018066 3.1018524 4.8444214 7.3088684 4.8444214 11.695557l0 165.40814c0 9.134796 -7.4052124 16.54004 -16.539978 16.54004l-600.84125 0c-9.134796 0 -16.540009 -7.405243 -16.540009 -16.54004z" fill-rule="evenodd"/><path stroke="#595959" stroke-width="1.0" stroke-linejoin="round" stroke-linecap="butt" d="m291.40158 188.89435l0 0c0 -9.134796 7.4052124 -16.540024 16.540009 -16.540024l600.84125 0c4.3866577 0 8.593689 1.7426147 11.695557 4.844467c3.1018066 3.1018524 4.8444214 7.3088684 4.8444214 11.695557l0 165.40814c0 9.134796 -7.4052124 16.54004 -16.539978 16.54004l-600.84125 0c-9.134796 0 -16.540009 -7.405243 -16.540009 -16.54004z" fill-rule="evenodd"/></g><g filter="url(#shadowFilter-p.8)"><use xlink:href="#p.8" transform="matrix(1.0 0.0 0.0 1.0 -9.192388188976334 -9.19238818897641)"/></g><defs><filter id="shadowFilter-p.8" filterUnits="userSpaceOnUse"><feGaussianBlur in="SourceAlpha" stdDeviation="8.0" result="blur"/><feComponentTransfer in="blur" color-interpolation-filters="sRGB"><feFuncR type="linear" slope="0" intercept="0.2627451"/><feFuncG type="linear" slope="0" intercept="0.2627451"/><feFuncB type="linear" slope="0" intercept="0.2627451"/><feFuncA type="linear" slope="0.7" intercept="0"/></feComponentTransfer></filter></defs><g id="p.8"><path fill="#134b70" d="m994.67456 188.89435l0 0c0 -9.134796 7.4052124 -16.540024 16.539978 -16.540024l600.84125 0c4.3867188 0 8.59375 1.7426147 11.695557 4.844467c3.1018066 3.1018524 4.8444824 7.3088684 4.8444824 11.695557l0 165.40814c0 9.134796 -7.4052734 16.54004 -16.54004 16.54004l-600.84125 0c-9.134766 0 -16.539978 -7.405243 -16.539978 -16.54004z" fill-rule="evenodd"/><path stroke="#595959" stroke-width="1.0" stroke-linejoin="round" stroke-linecap="butt" d="m994.67456 188.89435l0 0c0 -9.134796 7.4052124 -16.540024 16.539978 -16.540024l600.84125 0c4.3867188 0 8.59375 1.7426147 11.695557 4.844467c3.1018066 3.1018524 4.8444824 7.3088684 4.8444824 11.695557l0 165.40814c0 9.134796 -7.4052734 16.54004 -16.54004 16.54004l-600.84125 0c-9.134766 0 -16.539978 -7.405243 -16.539978 -16.54004z" fill-rule="evenodd"/></g><g filter="url(#shadowFilter-p.9)"><use xlink:href="#p.9" transform="matrix(1.0 0.0 0.0 1.0 -9.192388188976373 -9.192388188976334)"/></g><defs><filter id="shadowFilter-p.9" filterUnits="userSpaceOnUse"><feGaussianBlur in="SourceAlpha" stdDeviation="8.0" result="blur"/><feComponentTransfer in="blur" color-interpolation-filters="sRGB"><feFuncR type="linear" slope="0" intercept="0.2627451"/><feFuncG type="linear" slope="0" intercept="0.2627451"/><feFuncB type="linear" slope="0" intercept="0.2627451"/><feFuncA type="linear" slope="0.7" intercept="0"/></feComponentTransfer></filter></defs><g id="p.9"><path fill="#134b70" d="m291.40027 821.7316l0 0c0 -9.134827 7.4052124 -16.54004 16.540009 -16.54004l600.8412 0c4.3867188 0 8.593689 1.7426147 11.695557 4.8444824c3.1018677 3.1018677 4.8444824 7.308838 4.8444824 11.695557l0 165.40814c0 9.134827 -7.4052124 16.54004 -16.54004 16.54004l-600.8412 0c-9.134796 0 -16.540009 -7.4052124 -16.540009 -16.54004z" fill-rule="evenodd"/><path stroke="#595959" stroke-width="1.0" stroke-linejoin="round" stroke-linecap="butt" d="m291.40027 821.7316l0 0c0 -9.134827 7.4052124 -16.54004 16.540009 -16.54004l600.8412 0c4.3867188 0 8.593689 1.7426147 11.695557 4.8444824c3.1018677 3.1018677 4.8444824 7.308838 4.8444824 11.695557l0 165.40814c0 9.134827 -7.4052124 16.54004 -16.54004 16.54004l-600.8412 0c-9.134796 0 -16.540009 -7.4052124 -16.540009 -16.54004z" fill-rule="evenodd"/></g><g filter="url(#shadowFilter-p.10)"><use xlink:href="#p.10" transform="matrix(1.0 0.0 0.0 1.0 -9.192388188976334 -9.192388188976334)"/></g><defs><filter id="shadowFilter-p.10" filterUnits="userSpaceOnUse"><feGaussianBlur in="SourceAlpha" stdDeviation="8.0" result="blur"/><feComponentTransfer in="blur" color-interpolation-filters="sRGB"><feFuncR type="linear" slope="0" intercept="0.2627451"/><feFuncG type="linear" slope="0" intercept="0.2627451"/><feFuncB type="linear" slope="0" intercept="0.2627451"/><feFuncA type="linear" slope="0.7" intercept="0"/></feComponentTransfer></filter></defs><g id="p.10"><path fill="#134b70" d="m994.6732 821.7316l0 0c0 -9.134827 7.4052124 -16.54004 16.54004 -16.54004l600.8412 0c4.3867188 0 8.59375 1.7426147 11.695557 4.8444824c3.1019287 3.1018677 4.8444824 7.308838 4.8444824 11.695557l0 165.40814c0 9.134827 -7.4052734 16.54004 -16.54004 16.54004l-600.8412 0c-9.134827 0 -16.54004 -7.4052124 -16.54004 -16.54004z" fill-rule="evenodd"/><path stroke="#595959" stroke-width="1.0" stroke-linejoin="round" stroke-linecap="butt" d="m994.6732 821.7316l0 0c0 -9.134827 7.4052124 -16.54004 16.54004 -16.54004l600.8412 0c4.3867188 0 8.59375 1.7426147 11.695557 4.8444824c3.1019287 3.1018677 4.8444824 7.308838 4.8444824 11.695557l0 165.40814c0 9.134827 -7.4052734 16.54004 -16.54004 16.54004l-600.8412 0c-9.134827 0 -16.54004 -7.4052124 -16.54004 -16.54004z" fill-rule="evenodd"/></g><g filter="url(#shadowFilter-p.11)"><use xlink:href="#p.11" transform="matrix(1.0 0.0 0.0 1.0 -9.192388188976373 -9.192388188976334)"/></g><defs><filter id="shadowFilter-p.11" filterUnits="userSpaceOnUse"><feGaussianBlur in="SourceAlpha" stdDeviation="8.0" result="blur"/><feComponentTransfer in="blur" color-interpolation-filters="sRGB"><feFuncR type="linear" slope="0" intercept="0.2627451"/><feFuncG type="linear" slope="0" intercept="0.2627451"/><feFuncB type="linear" slope="0" intercept="0.2627451"/><feFuncA type="linear" slope="0.7" intercept="0"/></feComponentTransfer></filter></defs><g id="p.11"><path fill="#134b70" d="m291.40158 464.45044l0 0c0 -13.677582 11.08786 -24.765411 24.765411 -24.765411l1287.666 0c6.5682373 0 12.867432 2.609192 17.51184 7.253601c4.644409 4.6444397 7.25354 10.9436035 7.25354 17.51181l0 247.66602c0 13.677551 -11.087769 24.765442 -24.76538 24.765442l-1287.666 0c-13.677551 0 -24.765411 -11.087891 -24.765411 -24.765442z" fill-rule="evenodd"/><path stroke="#595959" stroke-width="1.0" stroke-linejoin="round" stroke-linecap="butt" d="m291.40158 464.45044l0 0c0 -13.677582 11.08786 -24.765411 24.765411 -24.765411l1287.666 0c6.5682373 0 12.867432 2.609192 17.51184 7.253601c4.644409 4.6444397 7.25354 10.9436035 7.25354 17.51181l0 247.66602c0 13.677551 -11.087769 24.765442 -24.76538 24.765442l-1287.666 0c-13.677551 0 -24.765411 -11.087891 -24.765411 -24.765442z" fill-rule="evenodd"/></g><g filter="url(#shadowFilter-p.12)"><use xlink:href="#p.12" transform="matrix(1.0 0.0 0.0 1.0 -9.19238818897641 -9.192388188976373)"/></g><defs><filter id="shadowFilter-p.12" filterUnits="userSpaceOnUse"><feGaussianBlur in="SourceAlpha" stdDeviation="8.0" result="blur"/><feComponentTransfer in="blur" color-interpolation-filters="sRGB"><feFuncR type="linear" slope="0" intercept="0.2627451"/><feFuncG type="linear" slope="0" intercept="0.2627451"/><feFuncB type="linear" slope="0" intercept="0.2627451"/><feFuncA type="linear" slope="0.7" intercept="0"/></feComponentTransfer></filter></defs><g id="p.12"><path fill="#134b70" d="m515.49603 29.514023l0 0c0 -5.698017 4.6192017 -10.317173 10.3172 -10.317173l888.6255 0c2.7363281 0 5.3604736 1.0869846 7.29541 3.0218296c1.9348145 1.9348469 3.0217285 4.559059 3.0217285 7.2953434l0 103.17668c0 5.6980133 -4.6191406 10.317169 -10.317139 10.317169l-888.6255 0c-5.697998 0 -10.3172 -4.619156 -10.3172 -10.317169z" fill-rule="evenodd"/><path stroke="#595959" stroke-width="1.0" stroke-linejoin="round" stroke-linecap="butt" d="m515.49603 29.514023l0 0c0 -5.698017 4.6192017 -10.317173 10.3172 -10.317173l888.6255 0c2.7363281 0 5.3604736 1.0869846 7.29541 3.0218296c1.9348145 1.9348469 3.0217285 4.559059 3.0217285 7.2953434l0 103.17668c0 5.6980133 -4.6191406 10.317169 -10.317139 10.317169l-888.6255 0c-5.697998 0 -10.3172 -4.619156 -10.3172 -10.317169z" fill-rule="evenodd"/></g></g></svg>